<mxfile host="app.diagrams.net" modified="2022-10-05T12:40:06.289Z" agent="5.0 (Windows NT 10.0; Win64; x64) AppleWebKit/537.36 (KHTML, like Gecko) Chrome/105.0.0.0 Safari/537.36" etag="2A7jJJ1Pe43WkCBkGCfY" version="20.3.7" type="github">
  <diagram id="R2lEEEUBdFMjLlhIrx00" name="Page-1">
    <mxGraphModel dx="994" dy="547" grid="1" gridSize="10" guides="1" tooltips="1" connect="1" arrows="1" fold="1" page="1" pageScale="1" pageWidth="850" pageHeight="1100" math="0" shadow="0" extFonts="Permanent Marker^https://fonts.googleapis.com/css?family=Permanent+Marker">
      <root>
        <mxCell id="0" />
        <mxCell id="1" parent="0" />
        <mxCell id="IFaDQ5PGdzeJOcfDwAV1-2" value="Intellectual Property" style="whiteSpace=wrap;html=1;align=center;" vertex="1" parent="1">
          <mxGeometry x="592" y="320" width="100" height="70" as="geometry" />
        </mxCell>
        <mxCell id="IFaDQ5PGdzeJOcfDwAV1-3" value="Associates" style="whiteSpace=wrap;html=1;align=center;" vertex="1" parent="1">
          <mxGeometry x="275" y="150" width="100" height="50" as="geometry" />
        </mxCell>
        <mxCell id="IFaDQ5PGdzeJOcfDwAV1-4" value="Departments" style="whiteSpace=wrap;html=1;align=center;" vertex="1" parent="1">
          <mxGeometry x="310" y="610" width="90" height="40" as="geometry" />
        </mxCell>
        <mxCell id="IFaDQ5PGdzeJOcfDwAV1-10" value="creates" style="shape=rhombus;perimeter=rhombusPerimeter;whiteSpace=wrap;html=1;align=center;" vertex="1" parent="1">
          <mxGeometry x="455" y="230" width="80" height="30" as="geometry" />
        </mxCell>
        <mxCell id="IFaDQ5PGdzeJOcfDwAV1-14" value="" style="endArrow=none;html=1;rounded=0;exitX=0;exitY=0.25;exitDx=0;exitDy=0;entryX=1;entryY=0.5;entryDx=0;entryDy=0;" edge="1" parent="1" source="IFaDQ5PGdzeJOcfDwAV1-2" target="IFaDQ5PGdzeJOcfDwAV1-10">
          <mxGeometry relative="1" as="geometry">
            <mxPoint x="365" y="200" as="sourcePoint" />
            <mxPoint x="575" y="270" as="targetPoint" />
            <Array as="points" />
          </mxGeometry>
        </mxCell>
        <mxCell id="IFaDQ5PGdzeJOcfDwAV1-15" value="N" style="resizable=0;html=1;align=right;verticalAlign=bottom;" connectable="0" vertex="1" parent="IFaDQ5PGdzeJOcfDwAV1-14">
          <mxGeometry x="1" relative="1" as="geometry" />
        </mxCell>
        <mxCell id="IFaDQ5PGdzeJOcfDwAV1-16" value="" style="endArrow=none;html=1;rounded=0;exitX=1;exitY=1;exitDx=0;exitDy=0;entryX=0;entryY=0.5;entryDx=0;entryDy=0;" edge="1" parent="1" source="IFaDQ5PGdzeJOcfDwAV1-3" target="IFaDQ5PGdzeJOcfDwAV1-10">
          <mxGeometry relative="1" as="geometry">
            <mxPoint x="305" y="380" as="sourcePoint" />
            <mxPoint x="465" y="380" as="targetPoint" />
          </mxGeometry>
        </mxCell>
        <mxCell id="IFaDQ5PGdzeJOcfDwAV1-17" value="1" style="resizable=0;html=1;align=right;verticalAlign=bottom;" connectable="0" vertex="1" parent="IFaDQ5PGdzeJOcfDwAV1-16">
          <mxGeometry x="1" relative="1" as="geometry" />
        </mxCell>
        <mxCell id="IFaDQ5PGdzeJOcfDwAV1-26" value="works for&amp;nbsp;" style="shape=rhombus;perimeter=rhombusPerimeter;whiteSpace=wrap;html=1;align=center;" vertex="1" parent="1">
          <mxGeometry x="15" y="380" width="80" height="50" as="geometry" />
        </mxCell>
        <mxCell id="IFaDQ5PGdzeJOcfDwAV1-27" value="License" style="whiteSpace=wrap;html=1;align=center;" vertex="1" parent="1">
          <mxGeometry x="602" y="620" width="100" height="40" as="geometry" />
        </mxCell>
        <mxCell id="IFaDQ5PGdzeJOcfDwAV1-28" value="has" style="shape=rhombus;perimeter=rhombusPerimeter;whiteSpace=wrap;html=1;align=center;" vertex="1" parent="1">
          <mxGeometry x="205" y="260" width="70" height="50" as="geometry" />
        </mxCell>
        <mxCell id="IFaDQ5PGdzeJOcfDwAV1-29" value="supervises" style="shape=rhombus;perimeter=rhombusPerimeter;whiteSpace=wrap;html=1;align=center;" vertex="1" parent="1">
          <mxGeometry x="300" y="230" width="80" height="60" as="geometry" />
        </mxCell>
        <mxCell id="IFaDQ5PGdzeJOcfDwAV1-30" value="Rights" style="whiteSpace=wrap;html=1;align=center;" vertex="1" parent="1">
          <mxGeometry x="305" y="360" width="100" height="40" as="geometry" />
        </mxCell>
        <mxCell id="IFaDQ5PGdzeJOcfDwAV1-32" value="has" style="shape=rhombus;perimeter=rhombusPerimeter;whiteSpace=wrap;html=1;align=center;" vertex="1" parent="1">
          <mxGeometry x="255" y="475" width="70" height="50" as="geometry" />
        </mxCell>
        <mxCell id="IFaDQ5PGdzeJOcfDwAV1-33" value="has" style="shape=rhombus;perimeter=rhombusPerimeter;whiteSpace=wrap;html=1;align=center;" vertex="1" parent="1">
          <mxGeometry x="617" y="510" width="70" height="50" as="geometry" />
        </mxCell>
        <mxCell id="IFaDQ5PGdzeJOcfDwAV1-34" value="owns" style="shape=rhombus;perimeter=rhombusPerimeter;whiteSpace=wrap;html=1;align=center;" vertex="1" parent="1">
          <mxGeometry x="485" y="495" width="80" height="30" as="geometry" />
        </mxCell>
        <mxCell id="IFaDQ5PGdzeJOcfDwAV1-35" value="" style="endArrow=none;html=1;rounded=0;exitX=0;exitY=0;exitDx=0;exitDy=0;entryX=0.5;entryY=0;entryDx=0;entryDy=0;" edge="1" parent="1" source="IFaDQ5PGdzeJOcfDwAV1-3" target="IFaDQ5PGdzeJOcfDwAV1-26">
          <mxGeometry relative="1" as="geometry">
            <mxPoint x="25" y="290" as="sourcePoint" />
            <mxPoint x="105" y="120" as="targetPoint" />
          </mxGeometry>
        </mxCell>
        <mxCell id="IFaDQ5PGdzeJOcfDwAV1-36" value="N" style="resizable=0;html=1;align=right;verticalAlign=bottom;" connectable="0" vertex="1" parent="IFaDQ5PGdzeJOcfDwAV1-35">
          <mxGeometry x="1" relative="1" as="geometry" />
        </mxCell>
        <mxCell id="IFaDQ5PGdzeJOcfDwAV1-37" value="" style="endArrow=none;html=1;rounded=0;exitX=0;exitY=1;exitDx=0;exitDy=0;entryX=1;entryY=0.5;entryDx=0;entryDy=0;" edge="1" parent="1" source="IFaDQ5PGdzeJOcfDwAV1-4" target="IFaDQ5PGdzeJOcfDwAV1-26">
          <mxGeometry relative="1" as="geometry">
            <mxPoint x="15" y="510" as="sourcePoint" />
            <mxPoint x="95" y="620" as="targetPoint" />
          </mxGeometry>
        </mxCell>
        <mxCell id="IFaDQ5PGdzeJOcfDwAV1-38" value="1" style="resizable=0;html=1;align=right;verticalAlign=bottom;" connectable="0" vertex="1" parent="IFaDQ5PGdzeJOcfDwAV1-37">
          <mxGeometry x="1" relative="1" as="geometry" />
        </mxCell>
        <mxCell id="IFaDQ5PGdzeJOcfDwAV1-41" value="" style="endArrow=none;html=1;rounded=0;entryX=0;entryY=0.5;entryDx=0;entryDy=0;exitX=1;exitY=0;exitDx=0;exitDy=0;" edge="1" parent="1" source="IFaDQ5PGdzeJOcfDwAV1-4" target="IFaDQ5PGdzeJOcfDwAV1-34">
          <mxGeometry relative="1" as="geometry">
            <mxPoint x="495" y="610" as="sourcePoint" />
            <mxPoint x="385" y="680" as="targetPoint" />
            <Array as="points" />
          </mxGeometry>
        </mxCell>
        <mxCell id="IFaDQ5PGdzeJOcfDwAV1-42" value="1" style="resizable=0;html=1;align=right;verticalAlign=bottom;" connectable="0" vertex="1" parent="IFaDQ5PGdzeJOcfDwAV1-41">
          <mxGeometry x="1" relative="1" as="geometry" />
        </mxCell>
        <mxCell id="IFaDQ5PGdzeJOcfDwAV1-39" value="" style="endArrow=none;html=1;rounded=0;exitX=0;exitY=1;exitDx=0;exitDy=0;entryX=1;entryY=0.5;entryDx=0;entryDy=0;" edge="1" parent="1" source="IFaDQ5PGdzeJOcfDwAV1-2" target="IFaDQ5PGdzeJOcfDwAV1-34">
          <mxGeometry relative="1" as="geometry">
            <mxPoint x="585" y="460" as="sourcePoint" />
            <mxPoint x="695" y="440" as="targetPoint" />
          </mxGeometry>
        </mxCell>
        <mxCell id="IFaDQ5PGdzeJOcfDwAV1-40" value="N" style="resizable=0;html=1;align=right;verticalAlign=bottom;" connectable="0" vertex="1" parent="IFaDQ5PGdzeJOcfDwAV1-39">
          <mxGeometry x="1" relative="1" as="geometry" />
        </mxCell>
        <mxCell id="IFaDQ5PGdzeJOcfDwAV1-44" value="grants" style="shape=rhombus;perimeter=rhombusPerimeter;whiteSpace=wrap;html=1;align=center;" vertex="1" parent="1">
          <mxGeometry x="475" y="330" width="60" height="60" as="geometry" />
        </mxCell>
        <mxCell id="IFaDQ5PGdzeJOcfDwAV1-45" value="" style="endArrow=none;html=1;rounded=0;exitX=0;exitY=0.5;exitDx=0;exitDy=0;entryX=1;entryY=0.5;entryDx=0;entryDy=0;" edge="1" parent="1" source="IFaDQ5PGdzeJOcfDwAV1-2" target="IFaDQ5PGdzeJOcfDwAV1-44">
          <mxGeometry relative="1" as="geometry">
            <mxPoint x="415" y="300" as="sourcePoint" />
            <mxPoint x="605" y="370" as="targetPoint" />
            <Array as="points" />
          </mxGeometry>
        </mxCell>
        <mxCell id="IFaDQ5PGdzeJOcfDwAV1-46" value="1" style="resizable=0;html=1;align=right;verticalAlign=bottom;" connectable="0" vertex="1" parent="IFaDQ5PGdzeJOcfDwAV1-45">
          <mxGeometry x="1" relative="1" as="geometry" />
        </mxCell>
        <mxCell id="IFaDQ5PGdzeJOcfDwAV1-47" value="" style="endArrow=none;html=1;rounded=0;entryX=0;entryY=0.5;entryDx=0;entryDy=0;exitX=1;exitY=0.5;exitDx=0;exitDy=0;" edge="1" parent="1" source="IFaDQ5PGdzeJOcfDwAV1-30" target="IFaDQ5PGdzeJOcfDwAV1-44">
          <mxGeometry relative="1" as="geometry">
            <mxPoint x="435" y="260" as="sourcePoint" />
            <mxPoint x="435" y="400" as="targetPoint" />
            <Array as="points" />
          </mxGeometry>
        </mxCell>
        <mxCell id="IFaDQ5PGdzeJOcfDwAV1-48" value="N" style="resizable=0;html=1;align=right;verticalAlign=bottom;" connectable="0" vertex="1" parent="IFaDQ5PGdzeJOcfDwAV1-47">
          <mxGeometry x="1" relative="1" as="geometry" />
        </mxCell>
        <mxCell id="IFaDQ5PGdzeJOcfDwAV1-49" value="" style="endArrow=none;html=1;rounded=0;entryX=0.5;entryY=0;entryDx=0;entryDy=0;exitX=0;exitY=1;exitDx=0;exitDy=0;" edge="1" parent="1" source="IFaDQ5PGdzeJOcfDwAV1-3" target="IFaDQ5PGdzeJOcfDwAV1-28">
          <mxGeometry relative="1" as="geometry">
            <mxPoint x="375" y="210" as="sourcePoint" />
            <mxPoint x="295" y="170" as="targetPoint" />
          </mxGeometry>
        </mxCell>
        <mxCell id="IFaDQ5PGdzeJOcfDwAV1-50" value="1" style="resizable=0;html=1;align=right;verticalAlign=bottom;" connectable="0" vertex="1" parent="IFaDQ5PGdzeJOcfDwAV1-49">
          <mxGeometry x="1" relative="1" as="geometry" />
        </mxCell>
        <mxCell id="IFaDQ5PGdzeJOcfDwAV1-53" value="" style="endArrow=none;html=1;rounded=0;exitX=0;exitY=0;exitDx=0;exitDy=0;entryX=0;entryY=0.5;entryDx=0;entryDy=0;" edge="1" parent="1" source="IFaDQ5PGdzeJOcfDwAV1-4" target="IFaDQ5PGdzeJOcfDwAV1-32">
          <mxGeometry relative="1" as="geometry">
            <mxPoint x="325" y="620" as="sourcePoint" />
            <mxPoint x="355" y="620" as="targetPoint" />
            <Array as="points" />
          </mxGeometry>
        </mxCell>
        <mxCell id="IFaDQ5PGdzeJOcfDwAV1-54" value="1" style="resizable=0;html=1;align=right;verticalAlign=bottom;" connectable="0" vertex="1" parent="IFaDQ5PGdzeJOcfDwAV1-53">
          <mxGeometry x="1" relative="1" as="geometry" />
        </mxCell>
        <mxCell id="IFaDQ5PGdzeJOcfDwAV1-56" value="" style="endArrow=none;html=1;rounded=0;exitX=0;exitY=1;exitDx=0;exitDy=0;entryX=0.5;entryY=0;entryDx=0;entryDy=0;" edge="1" parent="1" source="IFaDQ5PGdzeJOcfDwAV1-30" target="IFaDQ5PGdzeJOcfDwAV1-32">
          <mxGeometry relative="1" as="geometry">
            <mxPoint x="405" y="490" as="sourcePoint" />
            <mxPoint x="245" y="430" as="targetPoint" />
          </mxGeometry>
        </mxCell>
        <mxCell id="IFaDQ5PGdzeJOcfDwAV1-57" value="N" style="resizable=0;html=1;align=right;verticalAlign=bottom;" connectable="0" vertex="1" parent="IFaDQ5PGdzeJOcfDwAV1-56">
          <mxGeometry x="1" relative="1" as="geometry" />
        </mxCell>
        <mxCell id="IFaDQ5PGdzeJOcfDwAV1-58" value="" style="endArrow=none;html=1;rounded=0;exitX=0;exitY=0;exitDx=0;exitDy=0;entryX=1;entryY=0.5;entryDx=0;entryDy=0;" edge="1" parent="1" source="IFaDQ5PGdzeJOcfDwAV1-30" target="IFaDQ5PGdzeJOcfDwAV1-28">
          <mxGeometry relative="1" as="geometry">
            <mxPoint x="155" y="320" as="sourcePoint" />
            <mxPoint x="365" y="310" as="targetPoint" />
          </mxGeometry>
        </mxCell>
        <mxCell id="IFaDQ5PGdzeJOcfDwAV1-59" value="N" style="resizable=0;html=1;align=right;verticalAlign=bottom;" connectable="0" vertex="1" parent="IFaDQ5PGdzeJOcfDwAV1-58">
          <mxGeometry x="1" relative="1" as="geometry" />
        </mxCell>
        <mxCell id="IFaDQ5PGdzeJOcfDwAV1-69" value="" style="endArrow=none;html=1;rounded=0;entryX=0;entryY=0.5;entryDx=0;entryDy=0;exitX=0.25;exitY=1;exitDx=0;exitDy=0;" edge="1" parent="1" source="IFaDQ5PGdzeJOcfDwAV1-3" target="IFaDQ5PGdzeJOcfDwAV1-29">
          <mxGeometry relative="1" as="geometry">
            <mxPoint x="425" y="220" as="sourcePoint" />
            <mxPoint x="475" y="250" as="targetPoint" />
          </mxGeometry>
        </mxCell>
        <mxCell id="IFaDQ5PGdzeJOcfDwAV1-70" value="N" style="resizable=0;html=1;align=right;verticalAlign=bottom;" connectable="0" vertex="1" parent="IFaDQ5PGdzeJOcfDwAV1-69">
          <mxGeometry x="1" relative="1" as="geometry" />
        </mxCell>
        <mxCell id="IFaDQ5PGdzeJOcfDwAV1-71" value="" style="endArrow=none;html=1;rounded=0;exitX=0.75;exitY=1;exitDx=0;exitDy=0;entryX=1;entryY=0.5;entryDx=0;entryDy=0;" edge="1" parent="1" source="IFaDQ5PGdzeJOcfDwAV1-3" target="IFaDQ5PGdzeJOcfDwAV1-29">
          <mxGeometry relative="1" as="geometry">
            <mxPoint x="390" y="220" as="sourcePoint" />
            <mxPoint x="550" y="220" as="targetPoint" />
          </mxGeometry>
        </mxCell>
        <mxCell id="IFaDQ5PGdzeJOcfDwAV1-72" value="1" style="resizable=0;html=1;align=right;verticalAlign=bottom;" connectable="0" vertex="1" parent="IFaDQ5PGdzeJOcfDwAV1-71">
          <mxGeometry x="1" relative="1" as="geometry" />
        </mxCell>
        <mxCell id="IFaDQ5PGdzeJOcfDwAV1-74" value="" style="endArrow=none;html=1;rounded=0;exitX=0.5;exitY=1;exitDx=0;exitDy=0;entryX=0.5;entryY=0;entryDx=0;entryDy=0;" edge="1" parent="1" source="IFaDQ5PGdzeJOcfDwAV1-2" target="IFaDQ5PGdzeJOcfDwAV1-33">
          <mxGeometry relative="1" as="geometry">
            <mxPoint x="645" y="470" as="sourcePoint" />
            <mxPoint x="805" y="470" as="targetPoint" />
          </mxGeometry>
        </mxCell>
        <mxCell id="IFaDQ5PGdzeJOcfDwAV1-75" value="1" style="resizable=0;html=1;align=right;verticalAlign=bottom;" connectable="0" vertex="1" parent="IFaDQ5PGdzeJOcfDwAV1-74">
          <mxGeometry x="1" relative="1" as="geometry" />
        </mxCell>
        <mxCell id="IFaDQ5PGdzeJOcfDwAV1-76" value="" style="endArrow=none;html=1;rounded=0;entryX=0.5;entryY=1;entryDx=0;entryDy=0;exitX=0.5;exitY=0;exitDx=0;exitDy=0;" edge="1" parent="1" source="IFaDQ5PGdzeJOcfDwAV1-27" target="IFaDQ5PGdzeJOcfDwAV1-33">
          <mxGeometry relative="1" as="geometry">
            <mxPoint x="505" y="620" as="sourcePoint" />
            <mxPoint x="665" y="620" as="targetPoint" />
          </mxGeometry>
        </mxCell>
        <mxCell id="IFaDQ5PGdzeJOcfDwAV1-77" value="1" style="resizable=0;html=1;align=right;verticalAlign=bottom;" connectable="0" vertex="1" parent="IFaDQ5PGdzeJOcfDwAV1-76">
          <mxGeometry x="1" relative="1" as="geometry" />
        </mxCell>
        <mxCell id="IFaDQ5PGdzeJOcfDwAV1-78" value="Associate_id" style="ellipse;whiteSpace=wrap;html=1;align=center;fontStyle=4;" vertex="1" parent="1">
          <mxGeometry x="165" y="95" width="100" height="30" as="geometry" />
        </mxCell>
        <mxCell id="IFaDQ5PGdzeJOcfDwAV1-81" value="" style="endArrow=none;html=1;rounded=0;exitX=1;exitY=1;exitDx=0;exitDy=0;entryX=0.25;entryY=0;entryDx=0;entryDy=0;" edge="1" parent="1" source="IFaDQ5PGdzeJOcfDwAV1-78" target="IFaDQ5PGdzeJOcfDwAV1-3">
          <mxGeometry relative="1" as="geometry">
            <mxPoint x="300" y="90" as="sourcePoint" />
            <mxPoint x="305" y="130" as="targetPoint" />
          </mxGeometry>
        </mxCell>
        <mxCell id="IFaDQ5PGdzeJOcfDwAV1-83" value="Phone_no" style="ellipse;shape=doubleEllipse;margin=3;whiteSpace=wrap;html=1;align=center;" vertex="1" parent="1">
          <mxGeometry x="420" y="95" width="90" height="30" as="geometry" />
        </mxCell>
        <mxCell id="IFaDQ5PGdzeJOcfDwAV1-84" value="" style="endArrow=none;html=1;rounded=0;entryX=0.577;entryY=0.994;entryDx=0;entryDy=0;entryPerimeter=0;exitX=1;exitY=0;exitDx=0;exitDy=0;" edge="1" parent="1" source="IFaDQ5PGdzeJOcfDwAV1-3" target="IFaDQ5PGdzeJOcfDwAV1-83">
          <mxGeometry relative="1" as="geometry">
            <mxPoint x="300" y="110" as="sourcePoint" />
            <mxPoint x="460" y="110" as="targetPoint" />
          </mxGeometry>
        </mxCell>
        <mxCell id="IFaDQ5PGdzeJOcfDwAV1-85" value="Full Name" style="ellipse;whiteSpace=wrap;html=1;align=center;" vertex="1" parent="1">
          <mxGeometry x="245" y="65" width="80" height="30" as="geometry" />
        </mxCell>
        <mxCell id="IFaDQ5PGdzeJOcfDwAV1-87" value="" style="endArrow=none;html=1;rounded=0;entryX=0.5;entryY=1;entryDx=0;entryDy=0;" edge="1" parent="1" source="IFaDQ5PGdzeJOcfDwAV1-3" target="IFaDQ5PGdzeJOcfDwAV1-85">
          <mxGeometry relative="1" as="geometry">
            <mxPoint x="315" y="270" as="sourcePoint" />
            <mxPoint x="475" y="270" as="targetPoint" />
          </mxGeometry>
        </mxCell>
        <mxCell id="IFaDQ5PGdzeJOcfDwAV1-88" value="last_name" style="ellipse;whiteSpace=wrap;html=1;align=center;" vertex="1" parent="1">
          <mxGeometry x="265" y="15" width="65" height="30" as="geometry" />
        </mxCell>
        <mxCell id="IFaDQ5PGdzeJOcfDwAV1-89" value="first_name" style="ellipse;whiteSpace=wrap;html=1;align=center;" vertex="1" parent="1">
          <mxGeometry x="185" y="25" width="70" height="30" as="geometry" />
        </mxCell>
        <mxCell id="IFaDQ5PGdzeJOcfDwAV1-90" value="" style="endArrow=none;html=1;rounded=0;entryX=0.5;entryY=1;entryDx=0;entryDy=0;exitX=0.5;exitY=0;exitDx=0;exitDy=0;" edge="1" parent="1" source="IFaDQ5PGdzeJOcfDwAV1-85" target="IFaDQ5PGdzeJOcfDwAV1-88">
          <mxGeometry relative="1" as="geometry">
            <mxPoint x="315" y="275" as="sourcePoint" />
            <mxPoint x="475" y="275" as="targetPoint" />
          </mxGeometry>
        </mxCell>
        <mxCell id="IFaDQ5PGdzeJOcfDwAV1-91" value="" style="endArrow=none;html=1;rounded=0;entryX=0;entryY=0;entryDx=0;entryDy=0;exitX=0.5;exitY=1;exitDx=0;exitDy=0;" edge="1" parent="1" source="IFaDQ5PGdzeJOcfDwAV1-89" target="IFaDQ5PGdzeJOcfDwAV1-85">
          <mxGeometry relative="1" as="geometry">
            <mxPoint x="35" y="65" as="sourcePoint" />
            <mxPoint x="195" y="65" as="targetPoint" />
          </mxGeometry>
        </mxCell>
        <mxCell id="IFaDQ5PGdzeJOcfDwAV1-92" style="edgeStyle=none;rounded=0;orthogonalLoop=1;jettySize=auto;html=1;exitX=0.5;exitY=0;exitDx=0;exitDy=0;" edge="1" parent="1">
          <mxGeometry relative="1" as="geometry">
            <mxPoint x="215" y="100" as="sourcePoint" />
            <mxPoint x="215" y="100" as="targetPoint" />
          </mxGeometry>
        </mxCell>
        <mxCell id="IFaDQ5PGdzeJOcfDwAV1-93" value="dept_id" style="ellipse;whiteSpace=wrap;html=1;align=center;" vertex="1" parent="1">
          <mxGeometry x="325" y="45" width="60" height="30" as="geometry" />
        </mxCell>
        <mxCell id="IFaDQ5PGdzeJOcfDwAV1-95" value="" style="endArrow=none;html=1;rounded=0;entryX=0.5;entryY=1;entryDx=0;entryDy=0;exitX=0.5;exitY=0;exitDx=0;exitDy=0;" edge="1" parent="1" source="IFaDQ5PGdzeJOcfDwAV1-3" target="IFaDQ5PGdzeJOcfDwAV1-93">
          <mxGeometry relative="1" as="geometry">
            <mxPoint x="325" y="115" as="sourcePoint" />
            <mxPoint x="405" y="115" as="targetPoint" />
            <Array as="points" />
          </mxGeometry>
        </mxCell>
        <mxCell id="IFaDQ5PGdzeJOcfDwAV1-96" value="email" style="ellipse;whiteSpace=wrap;html=1;align=center;" vertex="1" parent="1">
          <mxGeometry x="365" y="85" width="55" height="15" as="geometry" />
        </mxCell>
        <mxCell id="IFaDQ5PGdzeJOcfDwAV1-97" value="" style="endArrow=none;html=1;rounded=0;exitX=0.687;exitY=-0.041;exitDx=0;exitDy=0;exitPerimeter=0;entryX=0.34;entryY=1.033;entryDx=0;entryDy=0;entryPerimeter=0;" edge="1" parent="1" source="IFaDQ5PGdzeJOcfDwAV1-3" target="IFaDQ5PGdzeJOcfDwAV1-96">
          <mxGeometry relative="1" as="geometry">
            <mxPoint x="395" y="74.5" as="sourcePoint" />
            <mxPoint x="555" y="74.5" as="targetPoint" />
          </mxGeometry>
        </mxCell>
        <mxCell id="IFaDQ5PGdzeJOcfDwAV1-99" value="supervisor_id" style="ellipse;whiteSpace=wrap;html=1;align=center;" vertex="1" parent="1">
          <mxGeometry x="415" y="45" width="80" height="30" as="geometry" />
        </mxCell>
        <mxCell id="IFaDQ5PGdzeJOcfDwAV1-100" value="" style="endArrow=none;html=1;rounded=0;exitX=0.85;exitY=-0.01;exitDx=0;exitDy=0;exitPerimeter=0;entryX=0.5;entryY=1;entryDx=0;entryDy=0;" edge="1" parent="1" source="IFaDQ5PGdzeJOcfDwAV1-3" target="IFaDQ5PGdzeJOcfDwAV1-99">
          <mxGeometry relative="1" as="geometry">
            <mxPoint x="485" y="60" as="sourcePoint" />
            <mxPoint x="645" y="60" as="targetPoint" />
          </mxGeometry>
        </mxCell>
        <mxCell id="IFaDQ5PGdzeJOcfDwAV1-104" value="dept_location" style="ellipse;whiteSpace=wrap;html=1;align=center;" vertex="1" parent="1">
          <mxGeometry x="390" y="680" width="100" height="40" as="geometry" />
        </mxCell>
        <mxCell id="IFaDQ5PGdzeJOcfDwAV1-105" value="dept_name" style="ellipse;whiteSpace=wrap;html=1;align=center;" vertex="1" parent="1">
          <mxGeometry x="305" y="720" width="100" height="40" as="geometry" />
        </mxCell>
        <mxCell id="IFaDQ5PGdzeJOcfDwAV1-107" value="dept_id" style="ellipse;whiteSpace=wrap;html=1;align=center;fontStyle=4;" vertex="1" parent="1">
          <mxGeometry x="225" y="680" width="100" height="40" as="geometry" />
        </mxCell>
        <mxCell id="IFaDQ5PGdzeJOcfDwAV1-108" style="edgeStyle=none;rounded=0;orthogonalLoop=1;jettySize=auto;html=1;exitX=0.5;exitY=1;exitDx=0;exitDy=0;" edge="1" parent="1" source="IFaDQ5PGdzeJOcfDwAV1-105" target="IFaDQ5PGdzeJOcfDwAV1-105">
          <mxGeometry relative="1" as="geometry" />
        </mxCell>
        <mxCell id="IFaDQ5PGdzeJOcfDwAV1-109" value="" style="endArrow=none;html=1;rounded=0;entryX=0.25;entryY=1;entryDx=0;entryDy=0;exitX=0.5;exitY=0;exitDx=0;exitDy=0;" edge="1" parent="1" source="IFaDQ5PGdzeJOcfDwAV1-107" target="IFaDQ5PGdzeJOcfDwAV1-4">
          <mxGeometry relative="1" as="geometry">
            <mxPoint x="275" y="700" as="sourcePoint" />
            <mxPoint x="475" y="620" as="targetPoint" />
          </mxGeometry>
        </mxCell>
        <mxCell id="IFaDQ5PGdzeJOcfDwAV1-110" value="" style="endArrow=none;html=1;rounded=0;entryX=0.5;entryY=1;entryDx=0;entryDy=0;exitX=0.5;exitY=0;exitDx=0;exitDy=0;" edge="1" parent="1" source="IFaDQ5PGdzeJOcfDwAV1-105" target="IFaDQ5PGdzeJOcfDwAV1-4">
          <mxGeometry relative="1" as="geometry">
            <mxPoint x="185" y="810" as="sourcePoint" />
            <mxPoint x="345" y="810" as="targetPoint" />
          </mxGeometry>
        </mxCell>
        <mxCell id="IFaDQ5PGdzeJOcfDwAV1-111" value="" style="endArrow=none;html=1;rounded=0;entryX=0.5;entryY=0;entryDx=0;entryDy=0;exitX=0.75;exitY=1;exitDx=0;exitDy=0;" edge="1" parent="1" source="IFaDQ5PGdzeJOcfDwAV1-4" target="IFaDQ5PGdzeJOcfDwAV1-104">
          <mxGeometry relative="1" as="geometry">
            <mxPoint x="315" y="620" as="sourcePoint" />
            <mxPoint x="475" y="620" as="targetPoint" />
          </mxGeometry>
        </mxCell>
        <mxCell id="IFaDQ5PGdzeJOcfDwAV1-112" value="license_id" style="ellipse;whiteSpace=wrap;html=1;align=center;" vertex="1" parent="1">
          <mxGeometry x="512" y="690" width="80" height="30" as="geometry" />
        </mxCell>
        <mxCell id="IFaDQ5PGdzeJOcfDwAV1-113" value="IP_id" style="ellipse;whiteSpace=wrap;html=1;align=center;" vertex="1" parent="1">
          <mxGeometry x="572" y="720" width="70" height="20" as="geometry" />
        </mxCell>
        <mxCell id="IFaDQ5PGdzeJOcfDwAV1-114" value="register_date" style="ellipse;whiteSpace=wrap;html=1;align=center;" vertex="1" parent="1">
          <mxGeometry x="702" y="690" width="80" height="30" as="geometry" />
        </mxCell>
        <mxCell id="IFaDQ5PGdzeJOcfDwAV1-115" value="expiry_date" style="ellipse;whiteSpace=wrap;html=1;align=center;" vertex="1" parent="1">
          <mxGeometry x="687" y="730" width="80" height="30" as="geometry" />
        </mxCell>
        <mxCell id="IFaDQ5PGdzeJOcfDwAV1-116" value="Type of license" style="ellipse;whiteSpace=wrap;html=1;align=center;" vertex="1" parent="1">
          <mxGeometry x="622" y="750" width="70" height="40" as="geometry" />
        </mxCell>
        <mxCell id="IFaDQ5PGdzeJOcfDwAV1-117" value="" style="endArrow=none;html=1;rounded=0;entryX=0;entryY=1;entryDx=0;entryDy=0;exitX=0.5;exitY=0;exitDx=0;exitDy=0;" edge="1" parent="1" source="IFaDQ5PGdzeJOcfDwAV1-112" target="IFaDQ5PGdzeJOcfDwAV1-27">
          <mxGeometry relative="1" as="geometry">
            <mxPoint x="512" y="699.5" as="sourcePoint" />
            <mxPoint x="672" y="699.5" as="targetPoint" />
          </mxGeometry>
        </mxCell>
        <mxCell id="IFaDQ5PGdzeJOcfDwAV1-118" value="" style="endArrow=none;html=1;rounded=0;entryX=0.25;entryY=1;entryDx=0;entryDy=0;" edge="1" parent="1" source="IFaDQ5PGdzeJOcfDwAV1-113" target="IFaDQ5PGdzeJOcfDwAV1-27">
          <mxGeometry relative="1" as="geometry">
            <mxPoint x="592" y="699.5" as="sourcePoint" />
            <mxPoint x="752" y="699.5" as="targetPoint" />
          </mxGeometry>
        </mxCell>
        <mxCell id="IFaDQ5PGdzeJOcfDwAV1-119" value="" style="endArrow=none;html=1;rounded=0;entryX=0;entryY=0;entryDx=0;entryDy=0;exitX=0.75;exitY=1;exitDx=0;exitDy=0;" edge="1" parent="1" source="IFaDQ5PGdzeJOcfDwAV1-27" target="IFaDQ5PGdzeJOcfDwAV1-114">
          <mxGeometry relative="1" as="geometry">
            <mxPoint x="582" y="760" as="sourcePoint" />
            <mxPoint x="742" y="760" as="targetPoint" />
          </mxGeometry>
        </mxCell>
        <mxCell id="IFaDQ5PGdzeJOcfDwAV1-120" value="" style="endArrow=none;html=1;rounded=0;entryX=0.5;entryY=1;entryDx=0;entryDy=0;" edge="1" parent="1" source="IFaDQ5PGdzeJOcfDwAV1-115" target="IFaDQ5PGdzeJOcfDwAV1-27">
          <mxGeometry relative="1" as="geometry">
            <mxPoint x="602" y="770" as="sourcePoint" />
            <mxPoint x="762" y="770" as="targetPoint" />
          </mxGeometry>
        </mxCell>
        <mxCell id="IFaDQ5PGdzeJOcfDwAV1-121" value="" style="endArrow=none;html=1;rounded=0;entryX=0.412;entryY=1.021;entryDx=0;entryDy=0;entryPerimeter=0;exitX=0.5;exitY=0;exitDx=0;exitDy=0;" edge="1" parent="1" source="IFaDQ5PGdzeJOcfDwAV1-116" target="IFaDQ5PGdzeJOcfDwAV1-27">
          <mxGeometry relative="1" as="geometry">
            <mxPoint x="682" y="800" as="sourcePoint" />
            <mxPoint x="702" y="840" as="targetPoint" />
            <Array as="points">
              <mxPoint x="652" y="690" />
            </Array>
          </mxGeometry>
        </mxCell>
        <mxCell id="IFaDQ5PGdzeJOcfDwAV1-122" value="creator_id" style="ellipse;whiteSpace=wrap;html=1;align=center;" vertex="1" parent="1">
          <mxGeometry x="592" y="230" width="68" height="30" as="geometry" />
        </mxCell>
        <mxCell id="IFaDQ5PGdzeJOcfDwAV1-123" value="dept_id" style="ellipse;whiteSpace=wrap;html=1;align=center;" vertex="1" parent="1">
          <mxGeometry x="637" y="200" width="55" height="20" as="geometry" />
        </mxCell>
        <mxCell id="IFaDQ5PGdzeJOcfDwAV1-126" value="IP_id" style="ellipse;whiteSpace=wrap;html=1;align=center;fontStyle=4;" vertex="1" parent="1">
          <mxGeometry x="567" y="260" width="55" height="30" as="geometry" />
        </mxCell>
        <mxCell id="IFaDQ5PGdzeJOcfDwAV1-127" value="submission date&amp;nbsp;" style="ellipse;whiteSpace=wrap;html=1;align=center;" vertex="1" parent="1">
          <mxGeometry x="678" y="220" width="98" height="30" as="geometry" />
        </mxCell>
        <mxCell id="IFaDQ5PGdzeJOcfDwAV1-128" value="Description" style="ellipse;whiteSpace=wrap;html=1;align=center;" vertex="1" parent="1">
          <mxGeometry x="720" y="280" width="70" height="30" as="geometry" />
        </mxCell>
        <mxCell id="IFaDQ5PGdzeJOcfDwAV1-129" value="domain" style="ellipse;whiteSpace=wrap;html=1;align=center;" vertex="1" parent="1">
          <mxGeometry x="725" y="350" width="55" height="30" as="geometry" />
        </mxCell>
        <mxCell id="IFaDQ5PGdzeJOcfDwAV1-130" value="business case&amp;nbsp;" style="ellipse;whiteSpace=wrap;html=1;align=center;" vertex="1" parent="1">
          <mxGeometry x="725" y="400" width="75" height="40" as="geometry" />
        </mxCell>
        <mxCell id="IFaDQ5PGdzeJOcfDwAV1-131" value="" style="endArrow=none;html=1;rounded=0;entryX=0.25;entryY=0;entryDx=0;entryDy=0;exitX=0.5;exitY=1;exitDx=0;exitDy=0;" edge="1" parent="1" source="IFaDQ5PGdzeJOcfDwAV1-126" target="IFaDQ5PGdzeJOcfDwAV1-2">
          <mxGeometry relative="1" as="geometry">
            <mxPoint x="485" y="309" as="sourcePoint" />
            <mxPoint x="645" y="309" as="targetPoint" />
          </mxGeometry>
        </mxCell>
        <mxCell id="IFaDQ5PGdzeJOcfDwAV1-132" value="" style="endArrow=none;html=1;rounded=0;entryX=0.5;entryY=0;entryDx=0;entryDy=0;exitX=0.5;exitY=1;exitDx=0;exitDy=0;" edge="1" parent="1" source="IFaDQ5PGdzeJOcfDwAV1-122" target="IFaDQ5PGdzeJOcfDwAV1-2">
          <mxGeometry relative="1" as="geometry">
            <mxPoint x="592" y="140" as="sourcePoint" />
            <mxPoint x="752" y="140" as="targetPoint" />
          </mxGeometry>
        </mxCell>
        <mxCell id="IFaDQ5PGdzeJOcfDwAV1-133" value="" style="endArrow=none;html=1;rounded=0;exitX=0.5;exitY=1;exitDx=0;exitDy=0;entryX=0.667;entryY=-0.008;entryDx=0;entryDy=0;entryPerimeter=0;" edge="1" parent="1" source="IFaDQ5PGdzeJOcfDwAV1-123" target="IFaDQ5PGdzeJOcfDwAV1-2">
          <mxGeometry relative="1" as="geometry">
            <mxPoint x="512" y="125" as="sourcePoint" />
            <mxPoint x="672" y="320" as="targetPoint" />
          </mxGeometry>
        </mxCell>
        <mxCell id="IFaDQ5PGdzeJOcfDwAV1-136" value="" style="endArrow=none;html=1;rounded=0;entryX=0.435;entryY=0.996;entryDx=0;entryDy=0;entryPerimeter=0;exitX=0.877;exitY=0.003;exitDx=0;exitDy=0;exitPerimeter=0;" edge="1" parent="1" source="IFaDQ5PGdzeJOcfDwAV1-2" target="IFaDQ5PGdzeJOcfDwAV1-127">
          <mxGeometry relative="1" as="geometry">
            <mxPoint x="592" y="124" as="sourcePoint" />
            <mxPoint x="752" y="124" as="targetPoint" />
          </mxGeometry>
        </mxCell>
        <mxCell id="IFaDQ5PGdzeJOcfDwAV1-138" value="" style="endArrow=none;html=1;rounded=0;entryX=0.5;entryY=1;entryDx=0;entryDy=0;exitX=1;exitY=0.5;exitDx=0;exitDy=0;" edge="1" parent="1" source="IFaDQ5PGdzeJOcfDwAV1-2" target="IFaDQ5PGdzeJOcfDwAV1-128">
          <mxGeometry relative="1" as="geometry">
            <mxPoint x="687" y="190" as="sourcePoint" />
            <mxPoint x="847" y="190" as="targetPoint" />
          </mxGeometry>
        </mxCell>
        <mxCell id="IFaDQ5PGdzeJOcfDwAV1-139" value="" style="endArrow=none;html=1;rounded=0;exitX=1;exitY=0.75;exitDx=0;exitDy=0;entryX=0;entryY=1;entryDx=0;entryDy=0;" edge="1" parent="1" source="IFaDQ5PGdzeJOcfDwAV1-2" target="IFaDQ5PGdzeJOcfDwAV1-129">
          <mxGeometry relative="1" as="geometry">
            <mxPoint x="672.5" y="460" as="sourcePoint" />
            <mxPoint x="832.5" y="460" as="targetPoint" />
          </mxGeometry>
        </mxCell>
        <mxCell id="IFaDQ5PGdzeJOcfDwAV1-140" value="" style="endArrow=none;html=1;rounded=0;exitX=0.931;exitY=1.013;exitDx=0;exitDy=0;exitPerimeter=0;entryX=0;entryY=0.5;entryDx=0;entryDy=0;" edge="1" parent="1" source="IFaDQ5PGdzeJOcfDwAV1-2" target="IFaDQ5PGdzeJOcfDwAV1-130">
          <mxGeometry relative="1" as="geometry">
            <mxPoint x="692" y="495" as="sourcePoint" />
            <mxPoint x="852" y="495" as="targetPoint" />
          </mxGeometry>
        </mxCell>
      </root>
    </mxGraphModel>
  </diagram>
</mxfile>
